# xmcd CD database file
#
# Track frame offsets:
#	150
#	17604
#	35442
#	52791
#	72265
#
# Disc length: 1253 seconds
#
# Revision: 0
# Processed by: cddbd v1.5.2PL0 Copyright (c) Steve Scherf et al.
# Submitted via: CDex 1.70beta2
#
DISCID=3404e305
DTITLE=Rosenstolz - Auch im Regen - Die Remixe - Single
DYEAR=2006
DGENRE=Mondän-Pop
TTITLE0=Auch im Regen - Radio Edit
TTITLE1=Auch im Regen - Tom Novy's Rainy Day Radio Cut Mix
TTITLE2=Auch im Regen - E-Kreisel's Emotional Mix
TTITLE3=Auch im Regen - Roobbie San Diego Radio Cut RMX
TTITLE4=Mein Sex - E-Kreisel Spezielle Praktiken Mix
EXTD=YEAR: 2006
EXTT0=
EXTT1=
EXTT2=
EXTT3=
EXTT4=
PLAYORDER=
